<?xml version="1.0" encoding="UTF-8"?>
<svg id="Calque_2" xmlns="http://www.w3.org/2000/svg" viewBox="0 0 134.45 133.78">
  <g id="picto">
    <path d="M97.84,133.78l-21.73-63.86-19.68,17.47-.69,27.68-9.49,6.12-5.93-18.98c-.49.43-.97.91-1.43,1.37-1.34,1.34-2.73,2.73-4.58,3.32-2.34.75-4.6.51-6.02-.63-.81-.65-1.72-1.89-1.51-4.13.24-2.6,1.88-6.18,4.2-8.05l-18.6-6.12,8.71-9.08,25.65-1.38c2.67-3.43,5.81-6.52,8.85-9.5,2.91-2.86,5.91-5.8,8.47-9.04-10.16-3.66-20.91-7.33-31.31-10.88-10.64-3.63-21.65-7.38-32.01-11.13l-.73-.26,8.25-8.5h.21s85.55-1.38,85.55-1.38c5.48-5.52,9.16-9.24,11.95-12.06,5.12-5.17,7.23-7.31,11.87-11.87,4.63-4.55,10.23-3.11,13.47.16,3.53,3.56,4.73,9.54.19,14.08-1.54,1.54-2.88,2.92-4.17,4.25-4.92,5.06-9.17,9.44-21.59,19.71l.89,86.68-8.79,6.03ZM76.57,68.17l21.79,64.04,7.26-4.98-.89-86.62.18-.15c12.52-10.34,16.77-14.72,21.7-19.79,1.29-1.33,2.63-2.71,4.18-4.26,4.08-4.08,2.99-9.46-.2-12.67-3-3.02-7.89-4.24-12.05-.15-4.63,4.55-6.75,6.69-11.86,11.86-2.81,2.84-6.54,6.61-12.1,12.21l-.14.14h-.2s-85.55,1.38-85.55,1.38l-6.88,7.09c10.15,3.66,20.88,7.32,31.27,10.86,10.63,3.62,21.62,7.37,31.98,11.12l.64.23-.42.54c-2.7,3.51-5.9,6.65-8.99,9.68-3.07,3.01-6.24,6.13-8.9,9.58l-.14.18h-.23s-25.48,1.38-25.48,1.38l-7.34,7.65,19.11,6.29-.97.56c-2.42,1.39-4.32,5.19-4.57,7.87-.13,1.42.26,2.55,1.14,3.26,1.16.93,3.06,1.11,5.09.46,1.62-.52,2.86-1.76,4.18-3.07.66-.66,1.35-1.34,2.08-1.92l.57-.45,5.98,19.13,7.94-5.12.69-27.58,21.13-18.76Z"/>
  </g>
</svg>