<?xml version="1.0" encoding="UTF-8"?>
<svg xmlns="http://www.w3.org/2000/svg" version="1.1" viewBox="0 0 134.4 133.8">
  <defs>
    <style>
      .cls-1 {
        fill: #f7f4e9;
      }
    </style>
  </defs>
  <!-- Generator: Adobe Illustrator 28.7.3, SVG Export Plug-In . SVG Version: 1.2.0 Build 164)  -->
  <g>
    <g id="Calque_1">
      <g id="Calque_2">
        <g id="picto">
          <path class="cls-1" d="M97.2,135.2l-21.6-63.6-18.2,16.2-.7,27.8-11.1,7.1-5.8-18.7c0,0,0,.1-.1.2h0c-1.3,1.4-2.9,3-5,3.6-2.5.9-5.2.6-6.9-.8-1.4-1.3-2.1-2.9-1.9-5,.2-2.5,1.5-5.5,3.3-7.6l-18.6-6.1,10.1-10.5,25.6-1.4c2.7-3.3,5.7-6.3,8.6-9.2l1.1-1.1c2.2-2.2,4.4-4.4,6.4-6.8-7-2.5-14.3-5-21.3-7.4-2.9-1-5.8-2-8.6-3-11.7-4-22.5-7.7-32-11.1l-2.1-.9,9.6-9.8h.6l85.2-1.4c5.4-5.4,9-9,11.6-11.8,5.1-5.2,7.2-7.3,11.9-11.9,5-5,11.3-3.4,14.9.2,3.8,3.9,5.1,10.5.2,15.5l-4.2,4.2c-4.9,5.1-9.3,9.4-21.3,19.5l.9,86.8-9.6,6.5-1,.5ZM76.1,67.2h1.1l.3.7,21.4,62.8,5.8-4-.9-86.5.5-.5c12.9-10.6,17.2-15.1,21.7-19.8.6-.6,1.2-1.3,1.9-1.9.7-.8,1.5-1.5,2.3-2.4,1.7-1.7,2.5-3.7,2.3-5.9-.1-1.9-1.1-3.9-2.5-5.4-2.5-2.5-6.7-4-10.7-.2-4.6,4.5-6.8,6.7-11.9,11.9-1.2,1.2-2.5,2.5-4,4-2.2,2.2-4.8,4.9-8.1,8.2l-.3.3h-.2c-.2,0-.3.1-.5.1l-85.2,1.4-5.5,5.7c6.8,2.5,13.9,4.9,20.8,7.3,3,1,6.1,2.1,9.1,3.1,11.7,4,22.5,7.7,32,11.1l1.9.6-1.3,1.6c-2.8,3.6-6.2,7-9.1,9.8-2.8,2.7-5.9,5.8-8.6,9.2v.9h-1.4l-25,1.4-5.9,6.3,19.7,6.5-2.9,1.7c-2.1,1.2-3.9,4.8-4.1,7.2,0,1,.2,1.9.8,2.4.9.7,2.5.8,4.2.3,1.4-.4,2.5-1.6,3.8-2.8.7-.7,1.3-1.3,2.2-2l1.8-1.2,6,19.1,6.4-4.1.7-27.5,21.7-19.3Z"/>
        </g>
      </g>
    </g>
  </g>
</svg>