<?xml version="1.0" encoding="UTF-8"?>
<svg id="Calque_2" xmlns="http://www.w3.org/2000/svg" version="1.1" viewBox="0 0 52.1 66.7">
  <!-- Generator: Adobe Illustrator 29.1.0, SVG Export Plug-In . SVG Version: 2.1.0 Build 142)  -->
  <defs>
    <style>
      .st0 {
        fill: #f7f4e9;
      }
    </style>
  </defs>
  <g id="picto">
    <path class="st0" d="M52.1,66.7H0V0h43.2l9,10.1s0,56.7,0,56.6ZM1,65.7h50.1V10.4l-.6-.6-7.8-8.8H1v64.7Z"/>
    <path class="st0" d="M52,10h-10.6V0h1.8l8.8,9.9ZM42.4,9h7.4l-7.1-7.9h-.3v7.9Z"/>
    <rect class="st0" x="6.5" y="13.4" width="38.5" height="2.6" rx=".6" ry=".6"/>
    <rect class="st0" x="6.8" y="23" width="38.5" height="2.6" rx=".6" ry=".6"/>
    <rect class="st0" x="6.5" y="23" width="38.5" height="2.6" rx=".6" ry=".6"/>
    <rect class="st0" x="6.5" y="32.6" width="38.5" height="2.6" rx=".6" ry=".6"/>
    <rect class="st0" x="6.5" y="41.5" width="38.5" height="2.6" rx=".6" ry=".6"/>
    <rect class="st0" x="5.8" y="51.1" width="38.5" height="2.6" rx=".6" ry=".6"/>
    <polygon class="st0" points="51.3 10.6 50.5 9.8 42.6 .8 43.3 .2 52 9.9 51.3 10.6"/>
  </g>
</svg>