<?xml version="1.0" encoding="UTF-8"?>
<svg id="Calque_2" xmlns="http://www.w3.org/2000/svg" version="1.1" viewBox="0 0 405 132.1">
  <!-- Generator: Adobe Illustrator 29.1.0, SVG Export Plug-In . SVG Version: 2.1.0 Build 142)  -->
  <defs>
    <style>
      .st0 {
        fill: #f7f4e9;
      }
    </style>
  </defs>
  <g id="Logo">
    <g id="Logo-2">
      <g id="Illustration">
        <g id="Billets">
          <g>
            <path class="st0" d="M207.8,30.4l-7-7.6c-.5-.6-1.8-.9-2.7,0-2.8,2.6-7.2,2.4-9.8-.4-2.6-2.8-2.4-7.2.4-9.8.6-.5,1.1-1.6.3-2.6l-6.1-6.6c-1.8-2-4.3-3.2-7-3.3-2.7-.1-5.3.8-7.2,2.6l-68.8,62.9c-2,1.8-3.2,4.3-3.3,7-.1,2.7.8,5.3,2.6,7.2l6.1,6.6c0,0,.1.1.2.2l2.9,5.9c.4.9,1.5,1.2,2.3.8,2.7-1.2,5.8-.6,7.9,1.4-.3.8-.8,1.5-1.5,2.1-.7.7-.7,1.8,0,2.5l2.9,3.2c-.6,1.4-1.7,2.5-3.1,3.3-.9.4-1.2,1.5-.8,2.4l4.6,9.3c2.5,5,8.5,7,13.5,4.6l20.2-10c.9-.4,1.2-1.5.8-2.4s-1.5-1.2-2.4-.8l-20.2,10c-3.2,1.6-7.1.3-8.7-2.9l-3.9-7.8c1-.8,1.8-1.7,2.5-2.7l1.5,1.6c1.8,2,4.3,3.2,7,3.3,2.4,0,5-.6,7.2-2.6l63.4-57.9c-.2,2,0,4,1,5.9,2.3,4.7,7.8,6.9,12.6,5.3l3.9,7.8c1.6,3.2.3,7.1-2.9,8.7l-55.7,27.6c-.9.4-1.2,1.5-.8,2.4s1.5,1.2,2.4.8l55.7-27.6c5-2.5,7-8.5,4.6-13.5l-4.6-9.3c-.4-.7-1.5-1.4-2.6-.7-3.4,1.7-7.6.3-9.3-3.1s-.3-7.6,3.1-9.3c.7-.3,1.5-1.3,1-2.5l-.4-.9c.5-1.1.8-2.3.8-3.6.1-2.7-.8-5.3-2.6-7.2h0ZM110.9,89.5l-1.9-3.8c4.1-2.2,9.4.3,10.2,5-2.4-1.5-5.5-1.9-8.3-1.2h0ZM163.2,65.7l4.9-4.5,7.1,7.7-4.9,4.5-7.1-7.7ZM206.9,37.5c0,1.8-.9,3.3-2.1,4.5l-20.5,18.7c-1.9-2.7-5.1.3-2.6,2.4l-3.8,3.4-8.3-9c-.3-.3-.8-.6-1.2-.6s-.9.2-1.3.5l-7.5,6.9c-.4.3-.6.8-.6,1.2s.1.9.5,1.3l8.3,9.1-31.8,29c-1.3,1.2-2.9,1.8-4.7,1.7s-3.3-.8-4.5-2.1l-5.9-6.5c2.9-3.8,2.7-9.4-.4-13-3.4-4-9.1-4.8-13.5-2.2l-5-5.4c-1.2-1.3-1.8-2.9-1.7-4.7,0-1.7.8-3.3,2.1-4.5l45.7-41.8.5.5c.6.6,1.4.7,2.1.4.1,0,.3-.2.4-.3.7-.7.8-1.8.1-2.5l-.5-.5,20.5-18.7c1.3-1.2,2.9-1.8,4.7-1.7s3.3.8,4.5,2.1l4.9,5.4c-3.2,4-3.1,9.8.4,13.7s9.4,4.5,13.6,1.6l5.9,6.4c1.2,1.3,1.8,3,1.7,4.7h0Z"/>
            <path class="st0" d="M160.1,34.3l-3.2-3.5c-.7-.7-1.8-.8-2.5-.1-.7.7-.8,1.8-.1,2.5l3.2,3.5c1.4,1.6,4.1-.5,2.6-2.4h0Z"/>
            <path class="st0" d="M169.1,44.1l-3.2-3.5c-.7-.7-1.8-.8-2.5-.1-.7.7-.8,1.8-.1,2.5l3.2,3.5c1.4,1.6,4.1-.5,2.6-2.4h0Z"/>
            <path class="st0" d="M174.8,50.4c-.7-.7-1.8-.8-2.5-.1-.7.7-.8,1.8-.1,2.5l3.2,3.5c1.4,1.6,4.1-.5,2.6-2.4l-3.2-3.5h0Z"/>
            <path class="st0" d="M179.4,16.8c0-.5-.1-.9-.5-1.3l-4.9-5.3c-.7-.7-1.8-.8-2.5-.1l-13.8,12.6c-.7.7-.8,1.8-.1,2.5l4.9,5.3c.3.4.8.6,1.2.6.3,0,.6,0,.9-.2.1,0,.3-.2.4-.3l13.8-12.6c.4-.3.6-.8.6-1.2h0ZM163.9,26.7l-2.5-2.7,11.1-10.2,2.5,2.7-11.1,10.2Z"/>
            <path class="st0" d="M188.9,42.3l7.4-6.7c.7-.7.8-1.8.1-2.5-.7-.7-1.8-.8-2.5-.1l-7.4,6.7c-.7.7-.8,1.8-.1,2.5.6.6,1.4.7,2.1.4.1,0,.3-.2.4-.3h0Z"/>
            <path class="st0" d="M198.1,37.7l-7.4,6.7c-.7.7-.8,1.8-.1,2.5.6.6,1.4.7,2.1.4.1,0,.3-.2.4-.3l7.4-6.7c.7-.7.8-1.8.1-2.5-.7-.7-1.8-.8-2.5-.1h0Z"/>
            <path class="st0" d="M140.4,87l-10.4,9.5c-.7.7-.8,1.8-.1,2.5.6.6,1.4.7,2.1.4.1,0,.3-.2.4-.3l10.4-9.5c.7-.7.8-1.8.1-2.5-.7-.7-1.8-.8-2.5-.1h0Z"/>
            <path class="st0" d="M211.4,75.5c.9-.4,1.2-1.5.8-2.4l-3.1-6.2c-.4-.9-1.5-1.2-2.4-.8l-17.6,8.7c-.9.4-1.2,1.5-.8,2.4l3.1,6.2c.4.9,1.5,1.2,2.4.8,0,0,17.6-8.7,17.6-8.7ZM192.4,77.2l14.4-7.2,1.5,3-14.4,7.2-1.5-3Z"/>
            <path class="st0" d="M184.3,84.7c.9-.4,1.2-1.5.8-2.4s-1.5-1.2-2.4-.8l-17,8.4c-.9.4-1.2,1.5-.8,2.4s1.5,1.2,2.4.8l17-8.4Z"/>
            <path class="st0" d="M147.2,52.4c-.5.5-1.9,1.8-3.7,3.6l-13.4-4.1c-.6-.2-1.3,0-1.7.4l-4.2,3.8c-.7.6-.9,2,.4,2.9l10.4,5.6c-4.4,4.4-8.6,8.7-9.9,10l-6,1.2c-1.2.2-2,2.2-.6,3.2l7.5,4.9c.7.2,1.2.6,2.2-.2l2.4-2.4c.8-.6,5.9-4.8,11.2-9.2l4.6,10.9c.5.7,1.3,1.7,2.8.6l4.1-3.8c.5-.4.7-1.1.5-1.7l-2.9-13.7c1.9-1.6,3.4-2.8,3.9-3.3,3.1-2.8,2.2-8,2.1-8.6-.1-.7-.6-1.2-1.3-1.4-.6-.2-5.7-1.5-8.8,1.3h0ZM128.6,57l1.5-1.4,10.6,3.3c-1,1-2,2-3,3l-9.1-4.9h0ZM150.4,77.8l-1.5,1.4-4.1-9.5c1.1-.9,2.3-1.9,3.3-2.7l2.3,10.9h0ZM152.8,58.4c-.6.5-2.3,2-4.6,3.9h0c-.9.8-2,1.7-3.3,2.7,0,0-.1.1-.2.2,0,0,0,0-.1,0-7.1,5.8-16,13.1-16.1,13.2,0,0,0,0-.1.1l-1.4,1.5-2.7-1.8,2.3-.5c.3,0,.7-.2.9-.5.1-.1,8.2-8.3,14.6-14.8.2-.2.4-.4.6-.6,0,0,0,0,0,0,1-1,1.9-1.9,2.7-2.7h0c2.1-2.1,3.7-3.7,4.3-4.2,1-.9,2.9-.9,4.3-.8,0,1.3-.1,3.2-1.1,4.2h0Z"/>
          </g>
        </g>
        <g id="Pointillés">
          <path class="st0" d="M316.5,86.1c-.9.3-1.9.6-2.8.9-1.1.3-2.4-.3-2.7-1.4s.3-2.3,1.4-2.7c.9-.3,1.8-.6,2.7-.9,1.8-.6,3.5-1.3,5.2-2,1.1-.5,2.4,0,2.9,1.1s0,2.4-1.1,2.9c-1.8.8-3.7,1.5-5.5,2.2ZM305.3,89.1c0,0-.2,0-.3,0-2.8.6-5.7,1-8.7,1.4-1.2.1-2.3-.7-2.4-1.9-.1-1.2.7-2.3,1.9-2.4,2.9-.3,5.7-.8,8.4-1.3,1.2-.2,2.3.5,2.5,1.7.2,1.1-.4,2.1-1.4,2.5h0ZM329.4,79.9c-.9.3-2,0-2.5-.8-.7-1-.4-2.3.6-3,2.4-1.6,4.5-3.3,6.3-5.2.8-.9,2.2-.9,3.1,0s.9,2.2,0,3.1c-2,2.1-4.4,4-7,5.8-.2,0-.3.2-.5.2h0ZM288.2,91.1c-.2,0-.4,0-.6.1-2.8.1-5.8.2-8.8.2-1.2,0-2.2-1-2.1-2.2,0-1.2,1-2.2,2.2-2.2,2.9,0,5.8,0,8.5-.2,1.2,0,2.2.9,2.3,2.1,0,1-.6,1.8-1.5,2.2h0ZM341.1,67.4c-.5.2-1.1.2-1.7,0-1.1-.5-1.5-1.8-1-2.9,1.2-2.5,1.9-5,1.9-7.4,0-1.2,1-2.1,2.2-2.1s2.1,1,2.1,2.2c0,3.1-.9,6.2-2.4,9.2-.3.5-.7.9-1.2,1.1h0ZM270.9,91.1c-.3,0-.5.1-.8.1-2.8-.2-5.8-.4-8.7-.6-1.2-.1-2.1-1.2-2-2.3.1-1.2,1.2-2.1,2.4-1.9,2.9.3,5.8.5,8.5.6,1.2,0,2.1,1.1,2,2.3,0,.9-.6,1.7-1.5,1.9ZM253.7,89.5c-.3.1-.6.1-1,0-2.8-.4-5.7-.8-8.6-1.3-1.2-.2-2-1.3-1.8-2.5s1.3-2,2.5-1.8c2.9.5,5.7.9,8.5,1.2,1.2.2,2,1.2,1.9,2.4-.1.8-.7,1.5-1.4,1.8h0ZM341,50.9c-.9.3-2,0-2.5-.9-.2-.2-.3-.5-.5-.7-.7-.9-.6-2.3.4-3,.9-.7,2.3-.6,3,.4.3.3.5.7.7,1,.6,1,.4,2.3-.6,3-.1,0-.3.2-.5.2h0ZM236.6,86.7c-.4.1-.7.2-1.1,0-2.8-.5-5.7-1.1-8.5-1.8-1.2-.3-1.9-1.4-1.6-2.6.3-1.2,1.4-1.9,2.6-1.7,2.8.6,5.6,1.2,8.4,1.7,1.2.2,1.9,1.4,1.7,2.5-.1.8-.7,1.4-1.4,1.6h0Z"/>
          <path class="st0" d="M53.7,132.1c-2.6,0-5.2-.2-7.8-.7-1.2-.2-2-1.3-1.8-2.5.2-1.2,1.3-2,2.5-1.8,2.7.5,5.4.7,8.2.6,1.2,0,2.2.9,2.2,2.1s-.9,2.2-2.1,2.2c-.4,0-.8,0-1.3,0ZM63.5,131.1c-1,0-1.9-.7-2.1-1.7-.2-1.2.5-2.3,1.7-2.6,2.6-.5,5.3-1.3,8-2.3,1.1-.4,2.4.2,2.8,1.3.4,1.1-.2,2.4-1.3,2.8-2.9,1.1-5.8,1.9-8.6,2.5-.2,0-.3,0-.4,0h0ZM38,129.2c-.3,0-.5,0-.8-.1-2.7-1.1-5.5-2.4-8.1-4-1-.6-1.3-2-.7-3,.6-1,2-1.3,3-.7,2.4,1.5,4.9,2.7,7.4,3.7,1.1.4,1.7,1.7,1.2,2.8-.3.9-1.2,1.4-2,1.4h0ZM79.7,125.2c-.8,0-1.5-.4-1.9-1.2-.6-1.1-.1-2.4.9-2.9,2.4-1.2,4.9-2.7,7.3-4.2,1-.7,2.3-.4,3,.6s.4,2.3-.6,3c-2.5,1.7-5.1,3.2-7.7,4.5-.3.2-.7.2-1,.2h0ZM23.3,120.2c-.5,0-1-.2-1.4-.5-2.2-1.8-4.3-3.9-6.4-6.2-.8-.9-.8-2.2.1-3.1.9-.8,2.2-.8,3.1.1,2,2.1,4,4.1,6,5.8.9.8,1,2.1.2,3.1-.4.5-1,.8-1.6.8h0ZM94.2,115.8c-.7,0-1.3-.3-1.7-.8-.7-.9-.6-2.3.4-3,2.2-1.7,4.4-3.5,6.5-5.5.9-.8,2.2-.7,3.1.2.8.9.7,2.2-.2,3.1-2.2,2-4.5,3.9-6.8,5.7-.4.3-.9.4-1.3.4h0ZM11.6,107.6c-.7,0-1.3-.3-1.7-.9-1.8-2.4-3.4-5-4.7-7.7-.5-1.1,0-2.4,1-2.9s2.4,0,2.9,1c1.2,2.4,2.7,4.8,4.3,7.1.7,1,.5,2.3-.5,3-.4.3-.8.4-1.3.4ZM107.1,104.2c-.5,0-1.1-.2-1.5-.6-.9-.8-.9-2.2,0-3.1,3.6-3.7,5.6-6.3,5.7-6.3.7-.9,2.1-1.1,3-.3s1.1,2.1.3,3c0,.1-2.2,2.8-5.9,6.6-.4.4-1,.7-1.6.7h0ZM4,92.1c-.9,0-1.8-.6-2.1-1.6-.8-2.9-1.4-5.8-1.7-8.8-.1-1.2.7-2.2,1.9-2.4,1.2-.1,2.2.7,2.4,1.9.3,2.8.8,5.5,1.6,8.1.3,1.2-.3,2.3-1.5,2.7-.2,0-.4,0-.6,0h0ZM2.2,75h-.2c-1.2,0-2.1-1.1-2-2.3.2-3,.6-5.9,1.3-8.9.3-1.2,1.4-1.9,2.6-1.6,1.2.3,1.9,1.4,1.6,2.6-.6,2.7-1,5.5-1.2,8.2,0,1.1-1,2-2.2,2h0ZM6,58.3c-.3,0-.5,0-.8-.2-1.1-.4-1.7-1.7-1.2-2.8,1.1-2.7,2.4-5.5,3.9-8,.6-1,1.9-1.4,3-.8,1,.6,1.4,1.9.8,3-1.4,2.4-2.6,4.9-3.7,7.5-.3.8-1.2,1.4-2,1.4h0ZM14.7,43.4c-.5,0-.9-.2-1.3-.5-.9-.7-1.1-2.1-.4-3,1.8-2.3,3.8-4.6,6-6.6.9-.8,2.2-.8,3.1,0,.8.9.8,2.2,0,3.1-2,2-3.9,4-5.6,6.2-.4.5-1.1.8-1.7.8h0ZM27,31.3c-.7,0-1.3-.3-1.7-.9-.7-1-.5-2.3.4-3,2.4-1.8,4.9-3.4,7.4-4.9,1-.6,2.4-.2,3,.8.6,1,.2,2.4-.8,3-2.4,1.4-4.8,2.9-7,4.6-.4.3-.9.4-1.3.4h0ZM126.5,28.1c-.3,0-.6,0-.9-.2l-.6-.3c-1.1-.5-1.6-1.8-1.1-2.9.5-1.1,1.8-1.6,2.8-1.1l.6.3c1.1.5,1.6,1.8,1.1,2.9-.4.8-1.2,1.3-2,1.3h0ZM117.9,24.6c-.2,0-.5,0-.8-.1-2.7-1-5.4-1.9-8.1-2.8-1.1-.4-1.8-1.6-1.4-2.7.3-1.1,1.6-1.8,2.7-1.4,2.7.9,5.5,1.8,8.3,2.8,1.1.4,1.7,1.7,1.3,2.8-.3.9-1.2,1.4-2,1.4h0ZM42,22.7c-.8,0-1.6-.5-2-1.3-.5-1.1,0-2.4,1.1-2.8,2.7-1.1,5.5-2.2,8.3-3,1.2-.3,2.3.3,2.7,1.5.3,1.1-.3,2.4-1.5,2.7-2.7.8-5.3,1.8-7.9,2.9-.3.1-.6.2-.8.2h0ZM101.4,19.5c-.2,0-.3,0-.5,0-2.8-.7-5.6-1.2-8.3-1.7-1.2-.2-2-1.3-1.8-2.5.2-1.2,1.3-2,2.5-1.8,2.8.5,5.7,1.1,8.6,1.8,1.2.3,1.9,1.5,1.6,2.6-.2,1-1.1,1.7-2.1,1.7h0ZM58.5,17.7c-1,0-1.9-.7-2.1-1.8-.2-1.2.5-2.3,1.7-2.5,2.9-.5,5.8-.9,8.8-1.2,1.2,0,2.2.8,2.3,2,0,1.2-.8,2.2-2,2.3-2.8.2-5.6.6-8.3,1.1-.1,0-.3,0-.4,0h0ZM84.3,16.6h-.2c-2.8-.2-5.7-.4-8.4-.4-1.2,0-2.2-1-2.2-2.2,0-1.2,1-2.1,2.2-2.1h0c2.9,0,5.9.2,8.8.4,1.2.1,2.1,1.2,2,2.4,0,1.1-1,2-2.2,2h0Z"/>
        </g>
      </g>
      <g id="Textes">
        <g id="_Évasion">
          <g>
            <path class="st0" d="M224.5,16.8v4.3h6.9v4h-6.9v4.6h7.8v4.1h-12.9V12.7h12.9v4.1h-7.8ZM229.2,8.5l-7.2,3v-3.5l7.2-3.5v4Z"/>
            <path class="st0" d="M255.4,12.7l-7.5,21.1h-6.4l-7.5-21.1h5.5l5.2,15.9,5.2-15.9s5.4,0,5.4,0Z"/>
            <path class="st0" d="M270.6,30h-7.9l-1.3,3.7h-5.4l7.6-21.1h5.9l7.6,21.1h-5.4s-1.3-3.7-1.3-3.7ZM269.3,26.1l-2.6-7.7-2.6,7.7h5.2,0Z"/>
            <path class="st0" d="M283.1,33.2c-1.2-.5-2.2-1.2-2.9-2.2s-1.1-2.2-1.2-3.5h5.5c0,.8.4,1.4.8,1.8s1.1.6,1.8.6,1.4-.2,1.8-.5.7-.8.7-1.5-.2-1-.5-1.3c-.4-.3-.8-.6-1.3-.8s-1.2-.5-2.2-.8c-1.4-.4-2.5-.8-3.3-1.3s-1.6-1-2.2-1.9c-.6-.8-.9-1.9-.9-3.2,0-2,.7-3.5,2.1-4.6,1.4-1.1,3.3-1.7,5.5-1.7s4.2.6,5.6,1.7c1.4,1.1,2.2,2.7,2.3,4.6h-5.5c0-.7-.3-1.2-.8-1.6s-1-.6-1.8-.6-1.1.2-1.5.5-.6.8-.6,1.4.3,1.2,1,1.6c.6.4,1.6.8,3,1.2,1.4.5,2.5.9,3.3,1.3s1.6,1,2.2,1.8c.6.8.9,1.8.9,3.1s-.3,2.3-.9,3.3c-.6,1-1.5,1.8-2.7,2.3-1.2.6-2.5.9-4.1.9s-2.9-.2-4.1-.8h0Z"/>
            <path class="st0" d="M303.2,12.7v21.1h-5.1V12.7h5.1Z"/>
            <path class="st0" d="M311.4,32.6c-1.6-.9-3-2.2-3.9-3.9-1-1.6-1.5-3.5-1.5-5.6s.5-3.9,1.5-5.6,2.3-2.9,3.9-3.8,3.5-1.4,5.4-1.4,3.8.5,5.5,1.4c1.6.9,3,2.2,3.9,3.8,1,1.6,1.4,3.5,1.4,5.5s-.5,3.9-1.4,5.6c-1,1.6-2.3,2.9-3.9,3.9-1.6.9-3.5,1.4-5.4,1.4s-3.8-.5-5.4-1.4h0ZM320.9,27.6c1-1.1,1.5-2.6,1.5-4.4s-.5-3.3-1.5-4.5c-1-1.1-2.4-1.7-4-1.7s-3.1.5-4.1,1.6c-1,1.1-1.5,2.6-1.5,4.5s.5,3.3,1.5,4.5c1,1.1,2.4,1.7,4.1,1.7s3-.6,4-1.7Z"/>
            <path class="st0" d="M349.3,33.7h-5.1l-8.6-13v13h-5.1V12.7h5.1l8.6,13v-13.1h5.1v21.1Z"/>
          </g>
        </g>
        <g id="Découvertes">
          <g>
            <path class="st0" d="M206.1,104.6c1.7.9,2.9,2.1,3.9,3.7s1.4,3.4,1.4,5.5-.5,3.9-1.4,5.5c-.9,1.6-2.2,2.8-3.9,3.7-1.7.9-3.6,1.3-5.8,1.3h-7.9v-21.1h7.9c2.2,0,4.2.4,5.8,1.3h0ZM204.5,118.3c1.1-1.1,1.6-2.6,1.6-4.5s-.5-3.4-1.6-4.5-2.6-1.6-4.5-1.6h-2.4v12.2h2.4c1.9,0,3.4-.5,4.5-1.6Z"/>
            <path class="st0" d="M219.3,107.4v4.3h6.9v4h-6.9v4.6h7.8v4.1h-12.9v-21.1h12.9v4.1s-7.8,0-7.8,0ZM224,99.1l-7.2,3v-3.5l7.2-3.5v4Z"/>
            <path class="st0" d="M230.9,108.2c.9-1.6,2.1-2.9,3.8-3.8,1.6-.9,3.4-1.4,5.5-1.4s4.6.7,6.4,2,3,3.1,3.6,5.4h-5.6c-.4-.9-1-1.6-1.8-2-.8-.5-1.6-.7-2.6-.7-1.6,0-2.9.6-3.8,1.7s-1.5,2.6-1.5,4.4.5,3.3,1.5,4.4c1,1.1,2.3,1.7,3.8,1.7s1.9-.2,2.6-.7c.8-.5,1.4-1.1,1.8-2h5.6c-.6,2.3-1.8,4.1-3.6,5.4-1.8,1.3-3.9,2-6.4,2s-3.9-.5-5.5-1.4-2.9-2.2-3.8-3.8c-.9-1.6-1.4-3.5-1.4-5.6s.4-3.9,1.4-5.6h0Z"/>
            <path class="st0" d="M257.8,123.2c-1.6-.9-3-2.2-3.9-3.9-1-1.7-1.4-3.5-1.4-5.6s.5-3.9,1.4-5.6,2.3-2.9,3.9-3.8,3.5-1.4,5.4-1.4,3.8.5,5.5,1.4c1.6.9,3,2.2,3.9,3.8,1,1.6,1.4,3.5,1.4,5.6s-.5,3.9-1.4,5.6c-1,1.7-2.3,2.9-3.9,3.9-1.6.9-3.5,1.4-5.4,1.4s-3.8-.5-5.4-1.4h0ZM267.3,118.2c1-1.1,1.5-2.6,1.5-4.4s-.5-3.3-1.5-4.5c-1-1.1-2.4-1.7-4-1.7s-3.1.6-4.1,1.7c-1,1.1-1.5,2.6-1.5,4.5s.5,3.3,1.5,4.5c1,1.1,2.4,1.7,4.1,1.7s3-.6,4-1.7Z"/>
            <path class="st0" d="M281.9,103.3v12.6c0,1.3.3,2.2.9,2.9s1.5,1,2.7,1,2.1-.3,2.8-1,1-1.7,1-2.9v-12.6h5.1v12.6c0,1.9-.4,3.5-1.2,4.8-.8,1.3-1.9,2.3-3.2,2.9s-2.9,1-4.5,1-3.1-.3-4.5-1c-1.3-.7-2.4-1.6-3.1-2.9-.8-1.3-1.1-2.9-1.1-4.8v-12.6h5.1Z"/>
            <path class="st0" d="M317.8,103.3l-7.5,21.1h-6.4l-7.5-21.1h5.5l5.2,15.9,5.2-15.9h5.4Z"/>
            <path class="st0" d="M325,107.4v4.3h6.9v4h-6.9v4.6h7.8v4.1h-12.9v-21.1h12.9v4.1s-7.8,0-7.8,0Z"/>
            <path class="st0" d="M346.9,124.4l-4.4-7.9h-1.2v7.9h-5.1v-21.1h8.6c1.7,0,3.1.3,4.2.9,1.2.6,2,1.4,2.6,2.4s.9,2.1.9,3.4-.4,2.7-1.2,3.8-2,1.9-3.5,2.3l4.9,8.3h-5.8,0ZM341.3,112.8h3.2c.9,0,1.6-.2,2.1-.7s.7-1.1.7-1.9-.2-1.4-.7-1.9-1.2-.7-2.1-.7h-3.2v5.2Z"/>
            <path class="st0" d="M370.9,103.3v4.1h-5.6v17h-5.1v-16.9h-5.6v-4.1h16.3,0Z"/>
            <path class="st0" d="M378.6,107.4v4.3h6.9v4h-6.9v4.6h7.8v4.1h-12.9v-21.1h12.9v4.1s-7.8,0-7.8,0Z"/>
            <path class="st0" d="M393.1,123.8c-1.2-.5-2.2-1.2-2.9-2.2s-1.1-2.2-1.2-3.5h5.5c0,.8.4,1.4.8,1.8s1.1.6,1.8.6,1.4-.2,1.8-.5.7-.8.7-1.5-.2-.9-.5-1.3c-.4-.3-.8-.6-1.3-.8-.5-.2-1.2-.5-2.2-.8-1.4-.4-2.5-.8-3.3-1.3-.9-.4-1.6-1-2.2-1.9s-.9-1.9-.9-3.2c0-2,.7-3.5,2.1-4.6s3.3-1.7,5.5-1.7,4.2.6,5.6,1.7c1.4,1.1,2.2,2.7,2.3,4.6h-5.5c0-.7-.3-1.2-.8-1.6s-1-.6-1.8-.6-1.1.2-1.5.5-.6.8-.6,1.4.3,1.2,1,1.6c.6.4,1.6.8,3,1.2,1.4.5,2.5.9,3.3,1.3s1.6,1,2.2,1.8c.6.8.9,1.8.9,3.1s-.3,2.3-.9,3.3c-.6,1-1.5,1.8-2.7,2.3-1.2.6-2.5.9-4.1.9s-2.9-.2-4.1-.8h0Z"/>
          </g>
        </g>
        <g id="_x26_">
          <path class="st0" d="M292.3,75.1l-3.2-3.2c-2.7,2.4-6,3.7-10,3.7s-4-.4-5.7-1.1-2.9-1.8-3.8-3.2c-.9-1.4-1.3-2.9-1.3-4.7s.5-3.7,1.6-5.2c1.1-1.5,2.7-2.8,4.8-3.7-.8-.9-1.3-1.8-1.6-2.7-.3-.8-.5-1.8-.5-2.8s.4-2.5,1-3.6c.7-1.1,1.7-1.9,3-2.5,1.3-.6,2.8-.9,4.6-.9s3.3.3,4.5,1,2.2,1.6,2.8,2.7c.6,1.1.9,2.4.8,3.7h-5.7c0-.9-.2-1.6-.7-2.1-.5-.5-1.1-.7-1.9-.7s-1.4.2-2,.7c-.5.5-.8,1.1-.8,1.8s.2,1.4.6,2.1,1.1,1.5,2.1,2.5l7.4,7.3c0,0,.1-.1.1-.2s0-.1,0-.2l2.4-4h6.1l-2.9,5.2c-.6,1.1-1.2,2.1-1.8,3.1l7.1,7h-7.2ZM285.4,68.3l-7.2-7.1c-2.7,1.2-4.1,2.9-4.1,5.1s.5,2.3,1.4,3.2c1,.8,2.2,1.3,3.8,1.3,2.3,0,4.3-.8,6.1-2.4h0Z"/>
        </g>
      </g>
    </g>
  </g>
</svg>