<?xml version="1.0" encoding="UTF-8"?>
<svg id="Calque_2" xmlns="http://www.w3.org/2000/svg" viewBox="0 0 404.96 132.12">
  <defs>
    <style>
      .cls-1 {
        fill: #2f2f2f;
      }
    </style>
  </defs>
  <g id="Logo">
    <g id="Logo-2" data-name="Logo">
      <g id="Illustration">
        <g id="Billets">
          <g>
            <path class="cls-1" d="M207.78,30.44l-6.98-7.64c-.54-.57-1.79-.9-2.66.03-2.83,2.59-7.23,2.39-9.82-.44-2.58-2.83-2.39-7.23.44-9.82.63-.5,1.11-1.65.27-2.65l-6.06-6.63c-1.82-1.99-4.29-3.15-6.98-3.27-2.69-.12-5.26.81-7.25,2.63l-68.83,62.87c-1.99,1.82-3.15,4.3-3.27,6.98-.12,2.69.81,5.26,2.63,7.25l6.06,6.63c.06.06.12.12.18.17l2.94,5.93c.43.87,1.47,1.23,2.35.82,2.67-1.24,5.83-.64,7.86,1.4-.35.76-.84,1.47-1.48,2.07-.7.67-.74,1.77-.08,2.49l2.95,3.23c-.64,1.4-1.7,2.53-3.08,3.26-.86.45-1.2,1.5-.77,2.37l4.6,9.28c2.47,4.98,8.52,7.02,13.5,4.56l20.21-10.01c.88-.44,1.24-1.51.81-2.39s-1.5-1.24-2.39-.81l-20.21,10.01c-3.22,1.59-7.13.27-8.73-2.95l-3.89-7.85c.99-.75,1.83-1.66,2.49-2.7l1.49,1.63c1.82,1.99,4.29,3.15,6.98,3.27,2.4.05,5.01-.56,7.25-2.63l63.37-57.89c-.23,1.95.09,3.98,1.02,5.87,2.34,4.71,7.76,6.91,12.62,5.35l3.85,7.78c1.59,3.22.27,7.13-2.95,8.73l-55.68,27.58c-.88.44-1.24,1.51-.81,2.39s1.5,1.24,2.39.81l55.68-27.58c4.98-2.47,7.02-8.52,4.56-13.5l-4.6-9.28c-.36-.69-1.47-1.37-2.57-.71-3.43,1.7-7.61.29-9.31-3.14s-.29-7.61,3.14-9.31c.74-.31,1.52-1.28.99-2.47l-.45-.9c.48-1.11.76-2.31.82-3.56.12-2.69-.81-5.26-2.63-7.25h0ZM110.94,89.47l-1.89-3.81c4.14-2.25,9.44.33,10.17,4.98-2.45-1.49-5.47-1.95-8.29-1.17h0ZM163.25,65.74l4.91-4.49,7.07,7.74-4.91,4.49-7.07-7.74ZM206.85,37.53c-.08,1.81-.88,3.26-2.11,4.51l-20.47,18.69c-1.95-2.7-5.09.3-2.63,2.4l-3.78,3.45-8.27-9.05c-.32-.35-.76-.56-1.23-.58-.47-.02-.93.15-1.28.46l-7.54,6.89c-.35.32-.56.76-.58,1.23-.02.47.15.93.46,1.28l8.27,9.05-31.78,29.03c-1.28,1.17-2.95,1.78-4.69,1.7-1.74-.08-3.34-.83-4.51-2.11l-5.91-6.47c2.87-3.84,2.72-9.36-.38-13.03-3.41-4.04-9.05-4.76-13.54-2.21l-4.98-5.45c-1.17-1.28-1.78-2.95-1.7-4.69.08-1.74.83-3.34,2.11-4.51l45.73-41.77.48.53c.55.6,1.41.74,2.1.4.15-.07.28-.17.41-.28.73-.66.78-1.79.11-2.52l-.48-.53,20.47-18.69c1.28-1.17,2.95-1.78,4.69-1.7,1.74.08,3.34.83,4.51,2.11l4.93,5.4c-3.22,3.97-3.14,9.82.41,13.7,3.55,3.88,9.36,4.49,13.61,1.65l5.86,6.41c1.17,1.28,1.78,2.95,1.7,4.69h0Z"/>
            <path class="cls-1" d="M160.11,34.29l-3.19-3.49c-.66-.73-1.79-.78-2.52-.11-.73.66-.78,1.79-.11,2.52l3.19,3.49c1.38,1.58,4.14-.47,2.63-2.4Z"/>
            <path class="cls-1" d="M169.07,44.09l-3.19-3.49c-.66-.73-1.79-.78-2.52-.11-.73.66-.78,1.79-.11,2.52l3.19,3.49c1.38,1.58,4.14-.47,2.63-2.4Z"/>
            <path class="cls-1" d="M174.84,50.41c-.66-.73-1.79-.78-2.52-.11-.73.66-.78,1.79-.11,2.52l3.19,3.49c1.38,1.58,4.14-.47,2.63-2.4l-3.19-3.49Z"/>
            <path class="cls-1" d="M179.37,16.76c.02-.47-.15-.93-.46-1.28l-4.86-5.32c-.66-.73-1.79-.78-2.52-.11l-13.76,12.57c-.73.66-.78,1.79-.11,2.52l4.86,5.32c.32.35.76.56,1.23.58.3.01.6-.05.87-.18.15-.07.29-.17.41-.28l13.76-12.57c.35-.32.56-.76.58-1.23h0ZM163.94,26.74l-2.46-2.69,11.13-10.17,2.46,2.69-11.13,10.17Z"/>
            <path class="cls-1" d="M188.9,42.31l7.35-6.72c.73-.66.78-1.79.11-2.52-.66-.73-1.79-.78-2.52-.11l-7.35,6.72c-.73.66-.78,1.79-.11,2.52.55.6,1.41.74,2.1.4.15-.07.28-.17.41-.28Z"/>
            <path class="cls-1" d="M198.15,37.68l-7.35,6.72c-.73.66-.78,1.79-.11,2.52.55.6,1.41.74,2.1.4.15-.07.28-.17.41-.28l7.35-6.72c.73-.66.78-1.79.11-2.52-.66-.73-1.79-.78-2.52-.11Z"/>
            <path class="cls-1" d="M140.43,86.95l-10.37,9.47c-.73.66-.78,1.79-.11,2.52.55.6,1.41.74,2.1.4.15-.07.28-.17.41-.28l10.37-9.47c.73-.66.78-1.79.11-2.52-.66-.73-1.79-.78-2.52-.11h0Z"/>
            <path class="cls-1" d="M211.44,75.46c.88-.44,1.24-1.51.81-2.39l-3.06-6.18c-.44-.88-1.5-1.24-2.39-.81l-17.62,8.73c-.88.44-1.24,1.5-.81,2.39l3.06,6.18c.44.88,1.5,1.24,2.39.81l17.62-8.73ZM192.36,77.22l14.43-7.15,1.48,2.99-14.43,7.15-1.48-2.99Z"/>
            <path class="cls-1" d="M184.32,84.65c.88-.44,1.24-1.5.81-2.39s-1.5-1.24-2.39-.81l-16.96,8.4c-.88.44-1.24,1.5-.81,2.39s1.5,1.24,2.39.81l16.96-8.4Z"/>
            <path class="cls-1" d="M147.24,52.37c-.54.49-1.89,1.82-3.67,3.6l-13.4-4.12c-.6-.18-1.26-.04-1.72.39l-4.15,3.79c-.65.62-.92,2.05.36,2.88l10.42,5.6c-4.4,4.45-8.59,8.71-9.88,10.02l-5.96,1.24c-1.24.24-2.04,2.16-.61,3.23l7.46,4.91c.74.25,1.25.59,2.24-.23l2.4-2.43c.77-.63,5.86-4.8,11.22-9.22l4.64,10.89c.51.71,1.27,1.69,2.84.62l4.15-3.79c.47-.43.67-1.07.54-1.68l-2.89-13.71c1.93-1.61,3.38-2.84,3.92-3.33,3.09-2.82,2.24-8.03,2.13-8.61-.12-.67-.62-1.21-1.27-1.39-.57-.16-5.68-1.48-8.77,1.34ZM128.56,56.97l1.54-1.41,10.63,3.26c-.97.97-1.99,2-3.03,3.05l-9.14-4.91ZM150.43,77.82l-1.54,1.41-4.07-9.54c1.14-.94,2.26-1.87,3.32-2.74l2.29,10.88ZM152.75,58.4c-.58.53-2.32,2-4.62,3.91,0,0,0,0,0,0-.95.79-2.04,1.7-3.26,2.71-.08.06-.15.12-.23.19-.04.03-.08.07-.12.1-7.05,5.83-15.97,13.14-16.11,13.25-.05.04-.09.08-.14.12l-1.44,1.46-2.66-1.75,2.29-.48c.34-.07.66-.24.91-.5.13-.13,8.19-8.34,14.63-14.83.2-.2.4-.4.59-.59.01-.01.02-.02.03-.04,1-1.01,1.9-1.91,2.7-2.72,0,0,0,0,0,0,2.11-2.11,3.73-3.71,4.31-4.25,1.02-.93,2.93-.93,4.26-.76.05,1.33-.12,3.23-1.15,4.16h0Z"/>
          </g>
        </g>
        <g id="Pointillés">
          <path class="cls-1" d="M316.45,86.11c-.91.31-1.85.62-2.81.91-1.14.35-2.35-.3-2.7-1.44-.35-1.14.27-2.32,1.44-2.7.92-.28,1.81-.59,2.69-.87,1.79-.62,3.52-1.3,5.16-2.03,1.08-.47,2.37,0,2.86,1.09.49,1.09,0,2.37-1.09,2.86-1.76.78-3.66,1.54-5.55,2.18ZM305.34,89.07c-.09.03-.19.06-.29.08-2.77.55-5.7,1.01-8.71,1.36-1.19.14-2.26-.71-2.4-1.9-.14-1.18.71-2.26,1.9-2.4,2.89-.34,5.71-.78,8.37-1.31,1.17-.23,2.31.53,2.54,1.7.21,1.07-.41,2.12-1.41,2.46ZM329.41,79.87c-.91.32-1.95-.01-2.51-.85-.66-1-.38-2.34.61-3,2.39-1.58,4.51-3.32,6.29-5.18.83-.86,2.2-.89,3.06-.06.86.83.89,2.2.06,3.06-2,2.08-4.37,4.03-7.03,5.79-.16.1-.32.18-.49.24ZM288.18,91.11c-.19.07-.39.1-.6.12-2.83.14-5.78.21-8.77.19-1.19,0-2.16-.98-2.15-2.17,0-1.19.98-2.16,2.17-2.15,2.91.01,5.78-.05,8.52-.19,1.19-.06,2.21.86,2.27,2.05.05.98-.56,1.85-1.45,2.15ZM341.08,67.38c-.53.18-1.12.16-1.66-.1-1.07-.53-1.51-1.82-.99-2.89,1.22-2.48,1.86-4.97,1.91-7.4.02-1.19,1.02-2.14,2.21-2.12,1.19.02,2.14,1.01,2.12,2.21-.06,3.06-.86,6.17-2.35,9.21-.26.53-.71.91-1.23,1.09ZM270.9,91.06c-.26.09-.53.13-.82.11-2.84-.15-5.77-.36-8.71-.64-1.19-.11-2.06-1.16-1.95-2.35.11-1.19,1.16-2.06,2.35-1.95,2.88.27,5.76.48,8.54.63,1.19.06,2.11,1.08,2.04,2.27-.05.91-.65,1.65-1.45,1.93ZM253.68,89.46c-.31.11-.64.14-.98.1-2.8-.36-5.7-.79-8.62-1.26-1.18-.19-1.98-1.3-1.79-2.48.19-1.18,1.3-1.98,2.48-1.79,2.88.47,5.73.89,8.49,1.24,1.18.15,2.02,1.24,1.87,2.42-.11.84-.69,1.51-1.44,1.77ZM340.97,50.86c-.92.32-1.96-.01-2.52-.86-.16-.25-.33-.49-.52-.72-.74-.94-.57-2.3.37-3.04.94-.73,2.3-.57,3.03.37.26.33.5.67.73,1.02.65,1,.37,2.34-.63,2.99-.15.1-.31.18-.48.23ZM236.61,86.7c-.35.12-.73.15-1.11.08-2.8-.54-5.66-1.13-8.52-1.75-1.17-.26-1.9-1.41-1.65-2.57.26-1.17,1.41-1.91,2.57-1.65,2.82.62,5.65,1.2,8.42,1.73,1.17.22,1.94,1.36,1.72,2.53-.15.79-.71,1.39-1.42,1.64Z"/>
          <path class="cls-1" d="M53.73,132.12c-2.61,0-5.22-.22-7.76-.66-1.18-.2-1.96-1.32-1.76-2.5.2-1.18,1.33-1.97,2.5-1.76,2.67.46,5.44.65,8.18.58,1.17-.07,2.19.91,2.22,2.1s-.91,2.19-2.1,2.22c-.43.01-.85.02-1.28.02ZM63.52,131.08c-1,0-1.9-.7-2.11-1.72-.24-1.17.51-2.31,1.67-2.56,2.62-.54,5.3-1.32,7.98-2.32,1.12-.41,2.36.16,2.78,1.28.41,1.12-.16,2.36-1.28,2.78-2.88,1.07-5.77,1.9-8.6,2.49-.15.03-.3.04-.44.04ZM38.03,129.17c-.26,0-.53-.05-.78-.15-2.74-1.07-5.45-2.42-8.07-4.04-1.02-.63-1.33-1.96-.71-2.97.63-1.02,1.96-1.33,2.97-.71,2.39,1.48,4.87,2.72,7.37,3.69,1.11.43,1.66,1.69,1.23,2.8-.33.86-1.15,1.38-2.02,1.38ZM79.71,125.17c-.78,0-1.54-.43-1.92-1.17-.55-1.06-.13-2.36.93-2.91,2.41-1.24,4.86-2.67,7.29-4.25,1-.65,2.34-.37,2.99.63.65,1,.37,2.34-.63,2.99-2.54,1.65-5.12,3.16-7.66,4.47-.32.16-.66.24-.99.24ZM23.33,120.21c-.49,0-.99-.17-1.4-.51-2.17-1.85-4.33-3.93-6.41-6.18-.81-.88-.75-2.25.12-3.06.88-.81,2.24-.75,3.05.12,1.96,2.13,3.99,4.08,6.03,5.82.91.77,1.02,2.14.25,3.05-.43.5-1.04.76-1.65.76ZM94.23,115.79c-.65,0-1.28-.29-1.71-.84-.73-.94-.56-2.3.38-3.03,2.19-1.7,4.38-3.53,6.52-5.46.89-.8,2.25-.73,3.05.16.8.89.73,2.25-.16,3.05-2.22,1.99-4.49,3.9-6.76,5.66-.39.31-.86.45-1.32.45ZM11.59,107.56c-.66,0-1.32-.3-1.74-.88-1.8-2.44-3.38-5.03-4.7-7.69-.53-1.07-.09-2.37.98-2.9,1.07-.53,2.37-.09,2.9.98,1.21,2.44,2.66,4.81,4.3,7.05.71.96.5,2.31-.46,3.02-.39.28-.84.42-1.28.42ZM107.11,104.23c-.54,0-1.09-.2-1.51-.61-.86-.83-.88-2.2-.05-3.06,3.57-3.68,5.63-6.27,5.65-6.3.74-.94,2.1-1.09,3.04-.35.94.74,1.09,2.1.35,3.04-.09.11-2.2,2.77-5.94,6.62-.42.44-.99.66-1.55.66ZM3.96,92.14c-.94,0-1.8-.62-2.08-1.56-.83-2.87-1.41-5.85-1.72-8.85-.12-1.19.74-2.25,1.93-2.37,1.17-.13,2.25.74,2.37,1.93.28,2.75.81,5.47,1.57,8.1.33,1.15-.33,2.35-1.48,2.68-.2.06-.4.09-.6.09ZM2.16,75.04s-.1,0-.15,0c-1.19-.08-2.09-1.11-2.01-2.3.2-2.96.65-5.95,1.33-8.89.27-1.16,1.43-1.89,2.6-1.62,1.16.27,1.89,1.43,1.62,2.6-.63,2.71-1.04,5.47-1.23,8.2-.08,1.14-1.03,2.02-2.15,2.02ZM6.04,58.26c-.27,0-.54-.05-.8-.16-1.11-.44-1.65-1.7-1.2-2.81,1.1-2.74,2.42-5.45,3.93-8.04.6-1.03,1.92-1.38,2.96-.78,1.03.6,1.38,1.92.78,2.96-1.4,2.42-2.63,4.93-3.66,7.48-.34.84-1.15,1.36-2.01,1.36ZM14.68,43.35c-.47,0-.94-.15-1.33-.46-.94-.74-1.1-2.1-.37-3.04,1.82-2.32,3.83-4.56,5.97-6.64.86-.83,2.22-.82,3.06.04.83.86.82,2.22-.04,3.06-2,1.95-3.88,4.04-5.58,6.21-.43.54-1.06.83-1.7.83ZM27.02,31.3c-.66,0-1.3-.3-1.73-.86-.72-.96-.53-2.31.43-3.03,2.35-1.77,4.85-3.41,7.44-4.9,1.04-.59,2.36-.24,2.95.8.59,1.04.24,2.36-.8,2.95-2.43,1.39-4.78,2.94-6.99,4.6-.39.29-.85.43-1.3.43ZM126.5,28.09c-.29,0-.59-.06-.87-.18l-.59-.26c-1.09-.48-1.59-1.75-1.11-2.85.48-1.09,1.75-1.59,2.85-1.11l.6.26c1.09.48,1.59,1.76,1.11,2.85-.36.81-1.15,1.29-1.98,1.29ZM117.89,24.57c-.25,0-.51-.04-.76-.14-2.69-1.01-5.4-1.94-8.06-2.76-1.14-.35-1.78-1.56-1.43-2.7.35-1.14,1.56-1.78,2.7-1.43,2.74.85,5.54,1.81,8.3,2.84,1.12.42,1.68,1.67,1.26,2.78-.33.87-1.15,1.4-2.02,1.4ZM41.98,22.7c-.84,0-1.64-.49-1.99-1.32-.47-1.1.04-2.37,1.14-2.84,2.69-1.15,5.5-2.16,8.35-3.02,1.15-.34,2.35.31,2.69,1.45.34,1.14-.31,2.35-1.45,2.69-2.7.81-5.35,1.77-7.9,2.85-.28.12-.56.17-.85.17ZM101.38,19.48c-.17,0-.34-.02-.51-.06-2.78-.67-5.58-1.24-8.32-1.7-1.18-.2-1.97-1.31-1.77-2.49.2-1.18,1.32-1.97,2.49-1.77,2.84.48,5.74,1.07,8.62,1.76,1.16.28,1.87,1.45,1.59,2.61-.24.99-1.12,1.66-2.1,1.66ZM58.5,17.74c-1.02,0-1.93-.73-2.12-1.77-.22-1.17.55-2.3,1.73-2.52,2.86-.53,5.81-.94,8.77-1.19,1.2-.09,2.24.78,2.34,1.97.1,1.19-.78,2.24-1.97,2.34-2.82.24-5.64.63-8.35,1.14-.13.02-.27.04-.4.04ZM84.33,16.64c-.06,0-.13,0-.2,0-2.84-.25-5.68-.39-8.45-.4-1.19,0-2.16-.98-2.15-2.17,0-1.19.97-2.15,2.16-2.15h.01c2.89.01,5.86.16,8.82.42,1.19.11,2.07,1.16,1.96,2.35-.1,1.12-1.04,1.97-2.15,1.97Z"/>
        </g>
      </g>
      <g id="Textes">
        <g id="_Évasion" data-name="Évasion">
          <g>
            <path class="cls-1" d="M224.49,16.79v4.26h6.87v3.96h-6.87v4.62h7.77v4.11h-12.9V12.68h12.9v4.11h-7.77ZM229.17,8.45l-7.23,3.03v-3.54l7.23-3.48v3.99Z"/>
            <path class="cls-1" d="M255.36,12.68l-7.47,21.06h-6.42l-7.47-21.06h5.46l5.22,15.9,5.25-15.9h5.43Z"/>
            <path class="cls-1" d="M270.6,30.02h-7.86l-1.26,3.72h-5.37l7.62-21.06h5.94l7.62,21.06h-5.43l-1.26-3.72ZM269.28,26.06l-2.61-7.71-2.58,7.71h5.19Z"/>
            <path class="cls-1" d="M283.08,33.2c-1.22-.5-2.19-1.24-2.92-2.22-.73-.98-1.12-2.16-1.16-3.54h5.46c.08.78.35,1.38.81,1.79s1.06.61,1.8.61,1.36-.17,1.8-.52.66-.83.66-1.46c0-.52-.18-.95-.52-1.29-.35-.34-.78-.62-1.29-.84-.51-.22-1.24-.47-2.18-.75-1.36-.42-2.47-.84-3.33-1.26-.86-.42-1.6-1.04-2.22-1.86-.62-.82-.93-1.89-.93-3.21,0-1.96.71-3.5,2.13-4.61,1.42-1.11,3.27-1.67,5.55-1.67s4.19.56,5.61,1.67c1.42,1.11,2.18,2.66,2.28,4.64h-5.55c-.04-.68-.29-1.22-.75-1.61s-1.05-.58-1.77-.58c-.62,0-1.12.17-1.5.5s-.57.81-.57,1.42c0,.68.32,1.21.96,1.59.64.38,1.64.79,3,1.23,1.36.46,2.46.9,3.31,1.32.85.42,1.58,1.03,2.21,1.83.62.8.93,1.83.93,3.09s-.31,2.29-.92,3.27c-.61.98-1.5,1.76-2.66,2.34-1.16.58-2.53.87-4.11.87s-2.92-.25-4.14-.75Z"/>
            <path class="cls-1" d="M303.18,12.68v21.06h-5.13V12.68h5.13Z"/>
            <path class="cls-1" d="M311.42,32.57c-1.65-.92-2.96-2.21-3.93-3.86-.97-1.65-1.45-3.5-1.45-5.56s.48-3.91,1.45-5.55,2.28-2.92,3.93-3.84c1.65-.92,3.46-1.38,5.44-1.38s3.8.46,5.45,1.38c1.65.92,2.95,2.2,3.9,3.84.95,1.64,1.42,3.49,1.42,5.55s-.48,3.92-1.44,5.56c-.96,1.65-2.26,2.94-3.9,3.86-1.64.92-3.45,1.38-5.43,1.38s-3.79-.46-5.44-1.38ZM320.9,27.59c1.01-1.12,1.52-2.6,1.52-4.44s-.51-3.34-1.52-4.46c-1.01-1.11-2.35-1.67-4.04-1.67s-3.06.55-4.06,1.65c-1.01,1.1-1.51,2.59-1.51,4.47s.5,3.34,1.51,4.46c1.01,1.11,2.36,1.67,4.06,1.67s3.02-.56,4.04-1.68Z"/>
            <path class="cls-1" d="M349.32,33.74h-5.13l-8.58-12.99v12.99h-5.13V12.68h5.13l8.58,13.05v-13.05h5.13v21.06Z"/>
          </g>
        </g>
        <g id="Découvertes">
          <g>
            <path class="cls-1" d="M206.1,104.61c1.66.88,2.94,2.12,3.85,3.71s1.37,3.43,1.37,5.5-.46,3.89-1.37,5.49c-.91,1.6-2.2,2.84-3.87,3.72-1.67.88-3.61,1.32-5.81,1.32h-7.89v-21.06h7.89c2.22,0,4.16.44,5.82,1.32ZM204.48,118.32c1.08-1.06,1.62-2.56,1.62-4.5s-.54-3.45-1.62-4.53c-1.08-1.08-2.59-1.62-4.53-1.62h-2.43v12.24h2.43c1.94,0,3.45-.53,4.53-1.59Z"/>
            <path class="cls-1" d="M219.33,107.4v4.26h6.87v3.96h-6.87v4.62h7.77v4.11h-12.9v-21.06h12.9v4.11h-7.77ZM224.01,99.06l-7.23,3.03v-3.54l7.23-3.48v3.99Z"/>
            <path class="cls-1" d="M230.91,108.23c.9-1.63,2.15-2.9,3.77-3.81,1.61-.91,3.44-1.37,5.48-1.37,2.5,0,4.64.66,6.42,1.98,1.78,1.32,2.97,3.12,3.57,5.4h-5.64c-.42-.88-1.02-1.55-1.79-2.01-.77-.46-1.65-.69-2.62-.69-1.58,0-2.86.55-3.84,1.65-.98,1.1-1.47,2.57-1.47,4.41s.49,3.31,1.47,4.41c.98,1.1,2.26,1.65,3.84,1.65.98,0,1.85-.23,2.62-.69.77-.46,1.36-1.13,1.79-2.01h5.64c-.6,2.28-1.79,4.08-3.57,5.38-1.78,1.31-3.92,1.97-6.42,1.97-2.04,0-3.87-.46-5.48-1.37-1.61-.91-2.86-2.17-3.77-3.79-.9-1.62-1.35-3.47-1.35-5.55s.45-3.94,1.35-5.57Z"/>
            <path class="cls-1" d="M257.8,123.18c-1.65-.92-2.96-2.21-3.93-3.86-.97-1.65-1.45-3.5-1.45-5.56s.48-3.91,1.45-5.55,2.28-2.92,3.93-3.84c1.65-.92,3.46-1.38,5.44-1.38s3.8.46,5.45,1.38c1.65.92,2.95,2.2,3.9,3.84.95,1.64,1.42,3.49,1.42,5.55s-.48,3.92-1.44,5.56c-.96,1.65-2.26,2.94-3.9,3.86-1.64.92-3.45,1.38-5.43,1.38s-3.79-.46-5.44-1.38ZM267.28,118.2c1.01-1.12,1.52-2.6,1.52-4.44s-.51-3.34-1.52-4.46c-1.01-1.11-2.35-1.67-4.04-1.67s-3.06.55-4.06,1.65c-1.01,1.1-1.51,2.59-1.51,4.47s.5,3.34,1.51,4.46c1.01,1.11,2.36,1.67,4.06,1.67s3.02-.56,4.04-1.68Z"/>
            <path class="cls-1" d="M281.91,103.29v12.6c0,1.26.31,2.23.93,2.91.62.68,1.53,1.02,2.73,1.02s2.12-.34,2.76-1.02.96-1.65.96-2.91v-12.6h5.13v12.57c0,1.88-.4,3.47-1.2,4.77-.8,1.3-1.88,2.28-3.23,2.94s-2.85.99-4.51.99-3.15-.33-4.46-.97c-1.31-.65-2.35-1.63-3.1-2.94-.76-1.31-1.14-2.9-1.14-4.79v-12.57h5.13Z"/>
            <path class="cls-1" d="M317.79,103.29l-7.47,21.06h-6.42l-7.47-21.06h5.46l5.22,15.9,5.25-15.9h5.43Z"/>
            <path class="cls-1" d="M325.05,107.4v4.26h6.87v3.96h-6.87v4.62h7.77v4.11h-12.9v-21.06h12.9v4.11h-7.77Z"/>
            <path class="cls-1" d="M346.88,124.35l-4.38-7.95h-1.23v7.95h-5.13v-21.06h8.61c1.66,0,3.07.29,4.24.87,1.17.58,2.04,1.38,2.62,2.39s.87,2.13.87,3.38c0,1.4-.4,2.65-1.19,3.75s-1.96,1.88-3.5,2.34l4.86,8.34h-5.79ZM341.27,112.77h3.18c.94,0,1.65-.23,2.12-.69.47-.46.71-1.11.71-1.95s-.24-1.43-.71-1.89c-.47-.46-1.18-.69-2.12-.69h-3.18v5.22Z"/>
            <path class="cls-1" d="M370.85,103.29v4.11h-5.58v16.95h-5.13v-16.95h-5.58v-4.11h16.29Z"/>
            <path class="cls-1" d="M378.56,107.4v4.26h6.87v3.96h-6.87v4.62h7.77v4.11h-12.9v-21.06h12.9v4.11h-7.77Z"/>
            <path class="cls-1" d="M393.14,123.81c-1.22-.5-2.19-1.24-2.92-2.22-.73-.98-1.12-2.16-1.16-3.54h5.46c.08.78.35,1.38.81,1.79s1.06.61,1.8.61,1.36-.17,1.8-.52.66-.83.66-1.46c0-.52-.18-.95-.52-1.29-.35-.34-.78-.62-1.29-.84-.51-.22-1.24-.47-2.18-.75-1.36-.42-2.47-.84-3.33-1.26-.86-.42-1.6-1.04-2.22-1.86-.62-.82-.93-1.89-.93-3.21,0-1.96.71-3.5,2.13-4.61,1.42-1.11,3.27-1.67,5.55-1.67s4.19.56,5.61,1.67c1.42,1.11,2.18,2.66,2.28,4.64h-5.55c-.04-.68-.29-1.22-.75-1.61s-1.05-.58-1.77-.58c-.62,0-1.12.17-1.5.5s-.57.81-.57,1.42c0,.68.32,1.21.96,1.59.64.38,1.64.79,3,1.23,1.36.46,2.46.9,3.31,1.32.85.42,1.58,1.03,2.21,1.83.62.8.93,1.83.93,3.09s-.31,2.29-.92,3.27c-.61.98-1.5,1.76-2.66,2.34-1.16.58-2.53.87-4.11.87s-2.92-.25-4.14-.75Z"/>
          </g>
        </g>
        <g id="_x26_">
          <path class="cls-1" d="M292.27,75.14l-3.19-3.15c-2.72,2.44-6.03,3.65-9.95,3.65-2.16,0-4.05-.37-5.69-1.11-1.64-.74-2.91-1.79-3.8-3.15-.9-1.36-1.34-2.93-1.34-4.73,0-1.93.55-3.67,1.64-5.21,1.09-1.54,2.7-2.79,4.83-3.74-.76-.92-1.3-1.81-1.64-2.67-.34-.85-.5-1.77-.5-2.75,0-1.34.35-2.55,1.05-3.63.7-1.08,1.7-1.92,3-2.54,1.3-.62,2.82-.92,4.56-.92s3.28.34,4.54,1.01c1.26.67,2.2,1.57,2.81,2.69.62,1.12.88,2.37.8,3.74h-5.71c.03-.92-.2-1.63-.67-2.12-.48-.49-1.12-.74-1.93-.74s-1.44.23-1.95.69c-.52.46-.78,1.06-.78,1.79s.21,1.39.63,2.08c.42.69,1.11,1.53,2.06,2.54l7.39,7.31c.06-.06.1-.11.13-.17s.06-.11.08-.17l2.39-3.99h6.13l-2.94,5.17c-.56,1.09-1.16,2.13-1.81,3.11l7.1,7.01h-7.22ZM285.38,68.34l-7.22-7.14c-2.72,1.2-4.07,2.91-4.07,5.12,0,1.26.48,2.32,1.43,3.17.95.85,2.21,1.28,3.78,1.28,2.3,0,4.33-.81,6.09-2.44Z"/>
        </g>
      </g>
    </g>
  </g>
</svg>