<?xml version="1.0" encoding="UTF-8"?>
<svg id="Calque_2" xmlns="http://www.w3.org/2000/svg" viewBox="0 0 44.75 91.5">
  <g id="picto">
    <g id="Teoignage">
      <path d="M22.39,37.1l-5.81-9.04H3.5c-1.93,0-3.5-1.57-3.5-3.5V3.5C0,1.57,1.57,0,3.5,0h37.75c1.93,0,3.5,1.57,3.5,3.5v21.06c0,1.93-1.57,3.5-3.5,3.5h-13.34l-5.52,9.04ZM3.5,1c-1.38,0-2.5,1.12-2.5,2.5v21.06c0,1.38,1.12,2.5,2.5,2.5h13.62l5.24,8.16,4.98-8.16h13.9c1.38,0,2.5-1.12,2.5-2.5V3.5c0-1.38-1.12-2.5-2.5-2.5H3.5Z"/>
      <circle cx="11.69" cy="13.91" r="3.04"/>
      <circle cx="22.59" cy="13.91" r="3.04"/>
      <circle cx="33.33" cy="13.91" r="3.04"/>
      <path d="M22.59,68.86c-6.25,0-11.33-5.08-11.33-11.33s5.08-11.33,11.33-11.33,11.33,5.08,11.33,11.33-5.08,11.33-11.33,11.33ZM22.59,47.19c-5.7,0-10.33,4.63-10.33,10.33s4.63,10.33,10.33,10.33,10.33-4.63,10.33-10.33-4.63-10.33-10.33-10.33Z"/>
      <path d="M42.8,91.5H3.51v-5.16c0-6.89,5.61-12.5,12.5-12.5h14.29c6.89,0,12.5,5.61,12.5,12.5v5.16ZM4.51,90.5h37.29v-4.16c0-6.34-5.16-11.5-11.5-11.5h-14.29c-6.34,0-11.5,5.16-11.5,11.5v4.16Z"/>
      <rect x="9.51" y="85" width="2.25" height="6"/>
      <rect x="33.42" y="85.34" width="2.24" height="5.66"/>
      <rect x="4.01" y="91" width="38.29" height="0"/>
    </g>
  </g>
</svg>