<?xml version="1.0" encoding="UTF-8"?>
<svg id="Calque_2" xmlns="http://www.w3.org/2000/svg" version="1.1" viewBox="0 0 44.8 91.5">
  <!-- Generator: Adobe Illustrator 29.1.0, SVG Export Plug-In . SVG Version: 2.1.0 Build 142)  -->
  <defs>
    <style>
      .st0 {
        fill: #f7f4e9;
      }
    </style>
  </defs>
  <g id="picto">
    <g id="Teoignage">
      <path class="st0" d="M22.4,37.1l-5.8-9H3.5c-1.9,0-3.5-1.6-3.5-3.5V3.5C0,1.6,1.6,0,3.5,0h37.8C43.2,0,44.8,1.6,44.8,3.5v21.1c0,1.9-1.6,3.5-3.5,3.5h-13.3l-5.5,9ZM3.5,1c-1.4,0-2.5,1.1-2.5,2.5v21.1c0,1.4,1.1,2.5,2.5,2.5h13.6l5.2,8.2,5-8.2h13.9c1.4,0,2.5-1.1,2.5-2.5V3.5c0-1.4-1.1-2.5-2.5-2.5H3.5Z"/>
      <circle class="st0" cx="11.7" cy="13.9" r="3"/>
      <circle class="st0" cx="22.6" cy="13.9" r="3"/>
      <circle class="st0" cx="33.3" cy="13.9" r="3"/>
      <path class="st0" d="M22.6,68.9c-6.2,0-11.3-5.1-11.3-11.3s5.1-11.3,11.3-11.3,11.3,5.1,11.3,11.3-5.1,11.3-11.3,11.3ZM22.6,47.2c-5.7,0-10.3,4.6-10.3,10.3s4.6,10.3,10.3,10.3,10.3-4.6,10.3-10.3-4.6-10.3-10.3-10.3Z"/>
      <path class="st0" d="M42.8,91.5H3.5v-5.2c0-6.9,5.6-12.5,12.5-12.5h14.3c6.9,0,12.5,5.6,12.5,12.5v5.2ZM4.5,90.5h37.3v-4.2c0-6.3-5.2-11.5-11.5-11.5h-14.3c-6.3,0-11.5,5.2-11.5,11.5,0,0,0,4.2,0,4.2Z"/>
      <rect class="st0" x="9.5" y="85" width="2.2" height="6"/>
      <rect class="st0" x="33.4" y="85.3" width="2.2" height="5.7"/>
      <polygon class="st0" points="4 91 42.3 91 42.3 91 4 91"/>
    </g>
  </g>
</svg>